#!OML:ASF H:\ColoradoDance\Project 1\Capture day 1\Session 8\male.ASF
:FULLY-SPECIFIED
:DEGREES
81
upperback -2.314010 8.045100 -0.262874
rfoot 174.447998 171.373993
lradius 97.415298
lthumb 48.583302 -2.403440
rradius 95.983902
lwrist 44.305698
rhand 21.311399 -6.438210
rhumerus -9.975340 52.873100 -48.888802
lowerneck -5.995610 0.569938 5.441280
lhand 24.371300 -384.338989
ltibia 83.305298
head 9.804920 -0.635855 0.449809
rwrist -405.997009
lfingers 7.125020
rtoes -27.520000
lowerback 5.253890 5.555560 8.764210
rfingers 7.125020
lclavicle 0.000000 0.000000
upperneck 27.686600 -2.627730 4.955840
rfemur 5.505850 -0.891091 30.897699
thorax -4.129970 3.735950 -5.758940
rclavicle 0.000000 0.000000
rtibia 26.652000
lfoot 20.046400 12.408800
lhumerus -25.174700 -37.189098 40.542702
rthumb 45.754799 -29.634199
root -18.451700 19.759600 -12.276600 144.589005 -53.294102 212.123993
ltoes 29.729401
lfemur -52.602100 14.239100 -27.425301
82
upperback -5.209920 11.569000 0.469760
rfoot 157.246002 167.227005
lradius 87.708603
lthumb 30.421700 3.670520
rradius 97.597504
lwrist 55.460201
rhand 6.057180 -8.374630
rhumerus -55.649899 44.710098 -85.588402
lowerneck -9.753330 5.062950 10.139500
lhand 5.054240 -383.839996
ltibia 44.542500
head 11.977000 2.908820 -1.140000
rwrist -406.334015
lfingers 7.125020
rtoes -34.050999
lowerback 1.895370 8.319890 9.434350
rfingers 7.125020
lclavicle -0.000000 -0.000000
upperneck 30.690599 4.375960 0.196931
rfemur 8.093850 -15.957400 32.236900
thorax -4.800640 5.334470 -5.177590
rclavicle -0.000000 -0.000000
rtibia 40.379398
lfoot -30.275600 37.568298
lhumerus -68.397102 -31.400801 74.440300
rthumb 31.377800 -35.703400
root -20.490000 18.317600 -13.095900 79.088303 -69.993301 279.024994
ltoes 24.427500
lfemur -34.615501 8.349710 -22.556499
83
upperback -4.770680 6.919550 4.077920
rfoot 194.951996 176.488007
lradius 90.837898
lthumb 26.611099 11.267700
rradius 101.536003
lwrist 51.613300
rhand 0.764860 -18.773600
rhumerus -71.844299 17.348801 -86.121498
lowerneck -13.702100 3.366440 5.899870
lhand 1.066100 -376.881989
ltibia 42.736599
head 13.080800 2.021380 -2.359420
rwrist -404.894012
lfingers 7.125020
rtoes -2.910770
lowerback -0.138256 4.924190 12.367400
rfingers 7.125020
lclavicle 0.000000 -0.000000
upperneck 31.471600 4.752900 -5.216990
rfemur -8.250060 -15.544600 14.906100
thorax -4.034880 3.011840 -2.739750
rclavicle 0.000000 -0.000000
rtibia 73.710999
lfoot -30.218700 12.762100
lhumerus -81.907303 -8.180240 86.556900
rthumb 26.322800 -46.966999
root -22.764900 17.892300 -11.857000 15.642300 -44.242001 338.906006
ltoes 24.922199
lfemur -12.709900 -0.486628 -31.375601
84
upperback -4.601370 -0.000249 3.646850
rfoot 170.578995 181.453003
lradius 82.913498
lthumb 9.790150 25.766500
rradius 94.658600
lwrist 41.196301
rhand -20.275600 -22.831100
rhumerus -47.337502 20.967699 -92.383598
lowerneck -15.083400 -1.109800 2.989450
lhand -16.424999 -363.985992
ltibia 36.136398
head 8.024800 -0.880442 -1.577880
rwrist -399.812988
lfingers 7.125020
rtoes 0.171365
lowerback 1.320020 -0.250896 4.216270
rfingers 7.125020
lclavicle 0.000000 -0.000000
upperneck 18.054701 -1.706540 -2.680010
rfemur -53.367100 -3.156080 16.143299
thorax -5.520140 -0.101991 1.428900
rclavicle 0.000000 -0.000000
rtibia 76.315903
lfoot -26.149000 -8.883920
lhumerus -47.021000 -19.709801 99.811203
rthumb 6.073740 -52.724098
root -24.120199 17.883499 -10.139300 11.782800 -9.409950 351.867004
ltoes 27.450199
lfemur -1.501070 -13.537800 -32.242500
85
upperback -0.903201 -4.364490 3.145240
rfoot 193.264999 170.917999
lradius 60.466999
lthumb -0.258742 26.862200
rradius 73.389397
lwrist 26.635401
rhand -34.258900 -28.512699
rhumerus -8.634400 24.108601 -84.668198
lowerneck -11.352800 -3.168890 1.291450
lhand -26.832899 -363.117004
ltibia 30.518200
head 4.494620 -2.160520 -1.107540
rwrist -394.673004
lfingers 7.125020
rtoes 15.543100
lowerback 4.346260 -3.364700 0.412099
rfingers 7.125020
lclavicle -0.000000 -0.000000
upperneck 9.057410 -4.243150 -1.943220
rfemur -73.093002 -9.167000 27.697399
thorax -3.149230 -2.153670 3.313700
rclavicle -0.000000 -0.000000
rtibia 51.045300
lfoot -20.109600 -19.515600
lhumerus -4.963210 -30.076200 97.039902
rthumb -7.429490 -58.362301
root -24.909000 17.066099 -6.615640 15.023200 8.893940 358.787994
ltoes 5.487200
lfemur 10.296900 -6.318590 -28.274300
86
upperback 3.648340 -2.987860 3.777980
rfoot 178.626007 164.300995
lradius 33.030201
lthumb 6.060660 21.394899
rradius 42.279999
lwrist 24.451401
rhand -53.382301 5.530020
rhumerus 36.266701 8.573670 -93.199997
lowerneck -7.897380 -2.938270 2.409070
lhand -20.289101 -368.497986
ltibia 68.072899
head 1.931010 -2.047620 -0.147648
rwrist -386.510986
lfingers 7.125020
rtoes 7.759460
lowerback 12.627200 -2.839200 4.476100
rfingers 7.125020
lclavicle 0.000000 0.000000
upperneck 1.934360 -4.218560 1.368410
rfemur -89.594002 -4.637150 27.994900
thorax -3.260160 -1.477880 1.885210
rclavicle 0.000000 0.000000
rtibia 66.065201
lfoot -14.225100 -8.731250
lhumerus 38.295898 -22.270500 94.304398
rthumb -25.831900 -22.735800
root -25.377800 16.330299 -4.587590 28.307800 12.594700 359.347992
ltoes -17.934401
lfemur -20.371000 3.217700 -21.756399
87
upperback 5.789840 -2.914560 3.079310
rfoot 180.554001 160.528000
lradius 19.208500
lthumb 15.709400 13.110300
rradius 31.758600
lwrist 12.025600
rhand -31.174000 -14.074100
rhumerus 31.306000 11.779900 -81.661102
lowerneck -5.348810 -3.612920 1.531220
lhand -10.284800 -376.272003
ltibia 64.860397
head 2.967940 -2.406430 0.309987
rwrist -381.563995
lfingers 7.125020
rtoes 9.885020
lowerback 13.443500 -2.592890 2.682870
rfingers 7.125020
lclavicle -0.000000 0.000000
upperneck 6.286280 -5.115200 2.447760
rfemur -91.021301 -6.526900 24.864300
thorax -1.408210 -1.412920 2.118030
rclavicle -0.000000 0.000000
rtibia 58.745602
lfoot -22.877800 9.714850
lhumerus 34.513699 -15.279600 97.347801
rthumb -4.451120 -44.007301
root -25.837400 17.021900 -4.377880 35.632000 17.200001 363.306000
ltoes -13.270200
lfemur -29.039000 0.830483 -17.463800
88
upperback 5.113880 -5.899770 3.546820
rfoot 189.490005 160.410995
lradius 6.633660
lthumb 15.459400 9.695200
rradius 20.912100
lwrist -24.265301
rhand -35.164101 -22.312000
rhumerus -36.377899 9.700720 -77.054199
lowerneck -7.150890 -2.615540 0.579209
lhand -10.544400 -379.707001
ltibia 43.547199
head 7.336730 -1.641080 -1.011820
rwrist -361.373993
lfingers 7.125020
rtoes 11.607600
lowerback 8.004810 -4.490050 -0.487356
rfingers 7.125020
lclavicle 0.000000 -0.000000
upperneck 20.259600 -3.222430 -1.998650
rfemur -80.641403 -12.503200 19.351500
thorax 1.262790 -2.992840 4.322750
rclavicle 0.000000 -0.000000
rtibia 46.764702
lfoot -31.603901 12.072400
lhumerus -14.794300 28.485399 76.827904
rthumb -8.303120 -52.128799
root -25.692400 17.458500 -5.856930 30.141199 20.029200 367.333008
ltoes -21.361500
lfemur -14.675200 8.131340 -24.148001
89
upperback 5.085020 -4.212750 1.164520
rfoot 153.690002 138.438004
lradius 10.653200
lthumb 19.231001 18.748899
rradius 10.457500
lwrist -34.492500
rhand -34.187401 -23.643499
rhumerus -82.476601 -2.189480 -22.056700
lowerneck -1.957120 -4.259890 3.079010
lhand -6.625420 -370.320007
ltibia 27.064501
head 6.453910 -2.576970 -1.333180
rwrist -332.828003
lfingers 7.125020
rtoes 46.550701
lowerback 4.913060 -3.239540 2.300220
rfingers 7.125020
lclavicle -0.000000 0.000000
upperneck 20.645500 -5.693840 -1.520090
rfemur -71.091797 -3.654750 -5.503020
thorax 2.413400 -2.035500 0.031372
rclavicle -0.000000 0.000000
rtibia 33.010700
lfoot -31.468399 6.899370
lhumerus -53.646301 16.554600 23.841299
rthumb -7.360450 -53.495399
root -25.393600 18.539801 -9.198540 24.098700 20.152500 366.321991
ltoes -13.595100
lfemur -10.740900 10.348300 -28.859301
90
upperback 5.440110 -0.571212 -0.267267
rfoot 140.481003 143.759995
lradius 9.899800
lthumb 29.384701 82.217903
rradius 10.695800
lwrist -31.485701
rhand -34.431000 -27.011700
rhumerus -92.846001 0.457604 -19.705400
lowerneck -1.142950 -4.658690 3.959350
lhand 3.967540 -305.479004
ltibia 21.080400
head 4.871080 -2.888830 -0.450028
rwrist -332.282990
lfingers 7.125020
rtoes 50.424000
lowerback 8.419620 -0.995749 10.783400
rfingers 7.125020
lclavicle -0.000000 0.000000
upperneck 15.812400 -6.647940 1.589970
rfemur -83.691200 -3.494930 -4.289870
thorax 0.909411 -0.001586 -6.302470
rclavicle -0.000000 0.000000
rtibia 31.674299
lfoot -25.330700 15.725500
lhumerus -58.968102 -3.693790 9.518800
rthumb -7.595570 -56.855301
root -25.265100 19.603201 -11.466400 24.185200 16.866100 359.002014
ltoes 2.795050
lfemur -17.948299 0.870392 -25.887501
91
upperback 5.537350 1.999170 -2.683240
rfoot 134.292007 143.753006
lradius 12.608000
lthumb 27.030199 85.401497
rradius 10.857600
lwrist -20.840300
rhand -28.514099 -20.032000
rhumerus -99.421097 -0.875174 -18.663099
lowerneck 1.335760 -6.040840 5.474270
lhand 1.504070 -302.683990
ltibia 23.717199
head 3.205710 -3.747930 -0.154203
rwrist -329.667999
lfingers 7.125020
rtoes 51.211201
lowerback 13.156600 0.293485 13.834100
rfingers 7.125020
lclavicle -0.000000 0.000000
upperneck 10.982500 -8.314790 2.955220
rfemur -88.172501 -4.979010 -6.901580
thorax -0.798474 1.279580 -11.054400
rclavicle -0.000000 0.000000
rtibia 28.444300
lfoot -23.401300 11.171000
lhumerus -56.429401 -16.994101 11.854100
rthumb -1.882410 -50.003502
root -25.157700 19.643700 -12.378500 24.224600 16.460199 359.737000
ltoes 4.523570
lfemur -22.244900 5.474540 -28.940901
